<svg width="12" height="6" viewBox="0 0 12 6" fill="none" xmlns="http://www.w3.org/2000/svg">
<path d="M0.930992 0.157003L5.61599 4.768C5.71821 4.86913 5.8562 4.92585 5.99999 4.92585C6.14378 4.92585 6.28177 4.86913 6.38399 4.768L11.069 0.158004C11.1718 0.0569282 11.3103 0.000291824 11.4545 0.000291824C11.5987 0.000291824 11.7371 0.0569282 11.84 0.158004C11.8906 0.207381 11.9309 0.266397 11.9584 0.331573C11.9859 0.39675 12 0.46677 12 0.537504C12 0.608239 11.9859 0.678257 11.9584 0.743434C11.9309 0.808611 11.8906 0.867627 11.84 0.917004L7.15599 5.527C6.84747 5.82993 6.43237 5.99965 5.99999 5.99965C5.56761 5.99965 5.15251 5.82993 4.84399 5.527L0.159992 0.917004C0.10919 0.867611 0.0688076 0.808534 0.0412328 0.743264C0.0136581 0.677995 -0.000549316 0.607859 -0.000549316 0.537004C-0.000549316 0.466148 0.0136581 0.396013 0.0412328 0.330744C0.0688076 0.265474 0.10919 0.206396 0.159992 0.157003C0.262847 0.0559278 0.401285 -0.00070858 0.545492 -0.00070858C0.689698 -0.00070858 0.828136 0.0559278 0.930992 0.157003Z" fill="black"/>
</svg>
