<svg width="16" height="16" viewBox="0 0 16 16" fill="none" xmlns="http://www.w3.org/2000/svg">
<path d="M8.00004 1.33334C11.682 1.33334 14.6667 4.318 14.6667 8C14.6667 11.682 11.682 14.6667 8.00004 14.6667C4.31804 14.6667 1.33337 11.682 1.33337 8C1.33337 4.318 4.31804 1.33334 8.00004 1.33334ZM8.00004 4C7.82323 4 7.65366 4.07024 7.52864 4.19526C7.40361 4.32029 7.33337 4.48986 7.33337 4.66667V8C7.33341 8.1768 7.40367 8.34634 7.52871 8.47134L9.52871 10.4713C9.65444 10.5928 9.82284 10.66 9.99764 10.6585C10.1724 10.6569 10.3396 10.5868 10.4633 10.4632C10.5869 10.3396 10.657 10.1724 10.6585 9.9976C10.66 9.8228 10.5928 9.6544 10.4714 9.52867L8.66671 7.724V4.66667C8.66671 4.48986 8.59647 4.32029 8.47144 4.19526C8.34642 4.07024 8.17685 4 8.00004 4Z" fill="white"/>
</svg>
